<svg id="Layer_1" data-name="Layer 1" xmlns="http://www.w3.org/2000/svg" viewBox="0 0 1434.72 479.76"><defs><clipPath id="clip-path"><path class="cls-1" d="M0 0h1434.72v479.76H0z"/></clipPath><style>.cls-1{fill:none}.cls-3{fill:#c7d3e4}.cls-4{fill:#dfe0e9}.cls-5{fill:#fff}.cls-7{fill:#363838}.cls-8{fill:#e4837a}.cls-9{fill:#e8e2e2}.cls-10{fill:#ca706f}.cls-11{fill:#ab194a}.cls-12{fill:#d94161}</style></defs><g style="clip-path:url(#clip-path)"><path class="cls-3" d="m659.66 55.02-.03 91.8-6.28-3.15.03-91.8 6.28 3.15z"/><path class="cls-4" d="m1045.31 15.93-.03 91.81-6.57 3.03.02-91.8 6.58-3.04z"/><path class="cls-3" d="m1038.73 18.97-.02 91.8L902.4 42.31l.01-42.4h98.39l37.93 19.06z"/><path class="cls-4" d="m902.41-.09-.01 42.4-242.77 104.51.03-91.8L795.38-.09h107.03zm-5.78 84.64-.03 91.8-135.58 62.56.03-91.8 135.58-62.56zm278.4 2.86-.03 91.81-142.11 65.58.03-91.81 142.11-65.58z"/><path class="cls-3" d="m1032.92 152.99-.03 91.81-136.29-68.45.03-91.8 136.29 68.44zm-12.11 130.88-.03 91.81-272.6-136.91.03-91.8 272.6 136.9zm278.42 2.87-.02 91.8-136.31-68.45.03-91.8 136.3 68.45zm92.4 1.27L1175 179.22l.03-91.81 216.6 108.79v91.81z"/><path class="cls-4" d="m1312.06 286.87-.03 91.81-142.11 65.57.03-91.8 142.11-65.58zm-277.91-3.09-.03 91.8-149.16 68.83.03-91.8 149.16-68.83z"/><path class="cls-3" d="m884.99 352.61-.03 91.8-74.01-37.74v-91.82l74.04 37.76z"/><path class="cls-4" d="m1163.39 355.48-.03 91.8-284.23 131.16.03-91.8 284.23-131.16z"/><path class="cls-3" d="m879.16 486.64-.03 91.8L742.84 510l.03-91.81 136.29 68.45zm512.47 75.28-228.27-114.64.03-91.8 228.24 114.62v91.82z"/><path class="cls-4" d="m742.87 418.19-.03 91.81-190.98 84.75v-88.42l191.01-88.14z"/><path class="cls-5" d="m1391.63 470.1-228.24-114.62-284.23 131.16-136.29-68.45-191.01 88.14v-6.06l184.72-85.23.44.34 6.56-3.03 135.86 68.11 419.79-193.72-136.3-68.45 6.54-3.02 142.59 71.6-142.11 65.58 221.68 111.33v6.32z"/><path class="cls-1" d="m1286.07-.09 105.56 52.93V-.09h-105.56z"/><path class="cls-5" d="M1286.07-.09h-12.59l118.15 59.25v-6.32L1286.07-.09zM1175.8 81l-142.63 65.82-135.8-68.68L748.21 147l272.6 136.9-135.56 62.53-69.71-35.82a2.82 2.82 0 0 0-4.08 2.52 2.82 2.82 0 0 0 1.55 2.52l72 37 149.16-68.83-273.12-136.71 135.58-62.56L1032.92 153 1175 87.41l216.6 108.7v-6.54zm-137.07-62.03 6.58-3.04-31.7-16.02h-12.81l37.93 19.06zm-385.35 32.9 6.28 3.15L795.38-.09h-13.11L653.38 51.87z"/><path class="cls-3" d="M1391.63 59.25 1273.48-.09h-182.82l300.97 151.16V59.25z"/></g><path d="M1136.37 330.84c0 6.23-15 11.28-38.63 11.28s-45.49-5.05-45.49-11.28 21.88-11.28 45.49-11.28 38.63 5.05 38.63 11.28z" style="fill:#d6e5fc"/><path class="cls-7" d="M1079.15 213s2.85 44.6 3 52.75c.07 4.14-.43 30.4-.71 44.77a22.11 22.11 0 0 0 8.46.1c1-8.4 2.44-19.23 3.19-23.88 2.6-16.2 0-20.88.53-25.59.27-2.56 4.4-21.35 8.12-38 1.34-6 2.63-11.71 3.66-16.27 1.35-6 2.26-10 2.26-10-4.66-11.25-28.51 16.12-28.51 16.12z"/><path class="cls-8" d="M1081.42 310.49c-.11 5.59-.19 9.38-.19 9.38l2.74 5.79 4.54-3.93s.59-4.9 1.37-11.14a22.11 22.11 0 0 1-8.46-.1z"/><path class="cls-5" d="M1089.45 320.36c.56.16 2.08 10.11 1.17 10.63s-26.31.92-27.79-.52c-.77-.76.05-4.12.59-4.27a61.82 61.82 0 0 0 17.47-8.27s2 1.27 1.68 2.61l-.3.56a4.91 4.91 0 0 0 3.11 1.34c1.53-.15 2.62-2.44 4.07-2.08z"/><path class="cls-9" d="M1076.84 320.47a5.25 5.25 0 0 1 1.9 2.82l-.39.11a4.83 4.83 0 0 0-1.84-2.66h-.06zm-2.23 1.23a5.18 5.18 0 0 1 1.76 2.72l-.39.1a4.85 4.85 0 0 0-1.78-2.62z"/><path class="cls-7" d="M1118.76 257.31a420.41 420.41 0 0 1 3.93-43.64c-2.94-7.35-11.58-7.54-17.31-6.77-3.12.43-6.4 1.14-6.4 1.14.53 5.24 1.12 10.28 1.72 15.13 1.67 13.39 4.49 25.33 5.48 35.88 2.28 24.14 3.74 41 4.61 51.47a22 22 0 0 0 4.33.43 23.24 23.24 0 0 0 3.41-.26l.06-1.31c3.9-30.38-.67-30.48.17-52.07z"/><path class="cls-8" d="m1118.08 320.63.45-9.94a23.24 23.24 0 0 1-3.41.26 22 22 0 0 1-4.33-.43c.74 8.93 1 13.15 1 13.15z"/><path class="cls-5" d="M1121.27 328.61c.43 3.19-2.75 5.08-6.13 5.08s-6.73-1.75-6.13-5.08c.35-2 1-4.46 1.5-6.95s2.21-4.3 4.38-4.3 3.72 1.72 4.42 4a44.2 44.2 0 0 1 1.96 7.25z"/><path class="cls-9" d="m1112.38 322.62-.28-.3a4.41 4.41 0 0 1 2.87-1.19 4.48 4.48 0 0 1 2.8 1.13l-.26.3a4.17 4.17 0 0 0-2.54-1 4 4 0 0 0-2.59 1.06zm-.48 2.38-.28-.29a5.11 5.11 0 0 1 3.36-1.36 5.18 5.18 0 0 1 3.27 1.28l-.27.31a4.75 4.75 0 0 0-3-1.18 4.69 4.69 0 0 0-3.08 1.24z"/><path class="cls-10" d="M1076.58 235.86h.41s1.64 2.41 1.51 2.87-4.53.24-4.53.24-2-1.42-1.77-3.27a22.93 22.93 0 0 1 2.42-5.68c1.42-1.44 2.37 1.37 2.37 1.37l-3.35 3.63z"/><path class="cls-8" d="M1079.37 220.79s-1.17 2.32-1 2.87a16.31 16.31 0 0 1 .66 3.86 42.16 42.16 0 0 1-.82 6.22c0 .57-.27 4.25-1.66 4.16s-.86-4-.86-4.35.07-2.75-.27-2.75-1.52-5.17-.18-6.71a22.93 22.93 0 0 1 4.13-3.3z"/><path class="cls-8" d="M1076 230.92a3.67 3.67 0 0 0-1.36 1 32.6 32.6 0 0 0-.9 4.76s2.77 2 3 2.81.25 1.62-.1 1.47c-1.9-.82-3.92-2-4.75-3.4-.58-1-.68-4.41-.68-4.41a3.46 3.46 0 0 1-.38-1.66c.12-.69 1.92-5.15 1.92-5.15l1-6.37 5.58.8z"/><path class="cls-11" d="M1086.06 142.7a14.48 14.48 0 0 0-4.28 4.55 15.51 15.51 0 0 0-1.49 4.87c-3.3 27.66-15 60.61-9.83 73.54 3.14 2.28 11 0 11 0l4.35-30.83 3.39-29.89s-.53-24.32-3.14-22.24z"/><path id="body" class="cls-12" d="M1106.56 135.27c5.06.31 14.37 4.55 15.93 9.84 1 7.21-4.36 27 0 50.59 5.56 22.22 3.42 29.77 3.42 29.77a33.24 33.24 0 0 1-14.69-6.65c-6 3.76-20 11.3-34.23 9.82-.14-5.23 2.16-15.67 4.5-29.83.84-5.56 1-32 .29-51.56 1.47-4.74 11.4-11.15 14.67-11.77a72.4 72.4 0 0 1 10.11-.21z"/><path class="cls-8" d="m1121.69 217-5.66-2.41a56.64 56.64 0 0 0-4.81 4.28c1.87 3.26 6.66 4.5 6.66 4.5z"/><path class="cls-12" d="m1115.87 212.75 8.07 5.17s14-12.53 17-25.37-6.64-38.1-22-52.08c-10.11 2.79.2 45.77.2 45.77z"/><path class="cls-11" d="M1123.07 217.39c-5.43-.56-10.77-5-11-5.15l-.2-.17.14-.23c.14-.21 13.67-21.08 14.42-23.51.17-.55-.23-3-4.77-13-2.6-5.76-5.33-11.29-5.36-11.34l.55-.27C1118 166 1127.79 186 1127 188.51s-12.76 21-14.33 23.43c1 .82 5.8 4.37 10.45 4.85z"/><path class="cls-11" d="m1126.82 188.71-.19-.58a11 11 0 0 1 5.64-.62l-.14.59.07-.29-.07.29a10.77 10.77 0 0 0-5.31.61z"/><path id="hood" class="cls-12" d="M1097 150.35c4.77 0 20.48-3.84 23.73-10.19s-1.1-11.09-8-13.31-20.48 0-23.32 6.35.99 17.18 7.59 17.15z"/><path class="cls-8" d="m1106.66 134.98-7.7 7.98-2.44-6.69.82-11.32 8.49-1.56.83 11.59z"/><path class="cls-10" d="m1106.21 128.76-.32-4.6-8.55.79-.57 7.79h.85c3.24-.01 6.9-2.22 8.59-3.98z"/><path id="hair" class="cls-7" d="M1112.11 111.84c0 6-4.95 11.59-11.06 11.59s-11.05-5.54-11.05-11.59a11.06 11.06 0 0 1 22.12 0z"/><path class="cls-10" d="M1091.42 115.11a1.43 1.43 0 0 0-2 .43c-.86 1.14-.29 5.4 1.85 5.4s.15-5.83.15-5.83z"/><path class="cls-8" d="M1108.32 115c.4-.48 1.38-.83 2.44.49s.36 6.31-2.3 6.31-1.22-5.45-.14-6.8z"/><path class="cls-8" d="M1107.44 113.93c-.78-5.21-5.25-7.91-10-7.91s-7.14 3.13-7.14 7.91v6.4c0 3.58 3.09 10.31 6.54 10.31 4 0 10.75-5.29 10.75-8.73a78.39 78.39 0 0 0-.15-7.98z"/><path d="M1098.43 113.77s3.56-.35 4.24-.29a1.72 1.72 0 0 1 1.57 1.25 22 22 0 0 1-5.33.36c-.68-.25-.48-1.32-.48-1.32zm-3.55 0s-3.55-.35-4.24-.29a3.37 3.37 0 0 0-.36.06c-.38.09-.38 1.35-.07 1.39a19.52 19.52 0 0 0 4.2.16c.68-.25.47-1.32.47-1.32z" style="fill:#283558"/><path id="nose" class="cls-10" d="M1094.91 122.72h3.15l-1.87.71-1.28-.71z"/><g id="head"><path class="cls-7" d="M1109.46 96c.14 4.13-2.35 6.78-6.1 6.91s-5.55-2.51-5.69-6.63 1.74-7.29 5.49-7.41 6.17 3.04 6.3 7.13z"/><path class="cls-7" d="M1104.11 102.6c-3.27 0-5.14-2.28-5.28-6.41a8.2 8.2 0 0 1 1.24-5 4.94 4.94 0 0 1 4.08-2.14h.21a5.34 5.34 0 0 1 4.23 2 8.24 8.24 0 0 1 1.67 4.9 6.64 6.64 0 0 1-1.55 4.78 5.94 5.94 0 0 1-4.36 1.9zm.25-13.32h-.2a4.73 4.73 0 0 0-3.89 2 8 8 0 0 0-1.2 4.86 7.7 7.7 0 0 0 1.33 4.51 4.5 4.5 0 0 0 3.94 1.66 5.67 5.67 0 0 0 4.19-1.81 6.39 6.39 0 0 0 1.48-4.61 7.88 7.88 0 0 0-1.61-4.75 5.07 5.07 0 0 0-4.04-1.86z"/></g><path class="cls-11" d="M1097.74 151.32c-1.75 0-3.8-1.73-6.07-5.14a43.31 43.31 0 0 1-2.86-5l.55-.26a45.23 45.23 0 0 0 2.82 5c2.12 3.18 4 4.86 5.56 4.86 5 0 20.76-8.92 20.91-9l.31.53c-.66.29-16.02 9.01-21.22 9.01z"/><path class="cls-5" d="M1094.58 176.86c-.83-2.4-1.09-8.57-.76-18.36.25-7.27.74-13.93.75-14h.61c0 .27-2 26.54 0 32.11zm8.96 4.83-.6-.11c1.1-6.06-.36-36.73-.38-37h.61c.06 1.2 1.48 30.98.37 37.11z"/></svg>