<?xml version="1.0" encoding="UTF-8"?>
<svg width="565px" height="395px" viewBox="0 0 565 395" version="1.1" xmlns="http://www.w3.org/2000/svg" xmlns:xlink="http://www.w3.org/1999/xlink">
    <title>illustration / drawkit / education / graduation</title>
    <g id="illustration-/-drawkit-/-education-/-graduation" stroke="none" stroke-width="1" fill="none" fill-rule="evenodd">
        <g>
            <g id="_x35__HAND__x26__CAP" transform="translate(418.000000, 41.824253)">
                <g id="HAND_8_" transform="translate(7.196368, 153.592105)">
                    <g id="DRESS_6_" transform="translate(29.785471, 108.907895)" fill-rule="nonzero">
                        <path d="M82.019083,33.7988654 L82.019083,88.5000103 L0.0190830368,88.5000103 L15.9961131,4.50001027 C15.4839229,7.81623609 25.7112047,14.0341595 39.705563,20.268664 C44.7283315,22.5071165 50.3293792,24.7289878 56.3104391,26.8347912 C65.9594417,30.2505038 74.8484201,32.5718618 82.019083,33.7988654 C82.0025608,33.7988654 82.019083,33.7988654 82.019083,33.7988654 Z" id="Path" fill="#9A3B82"></path>
                        <path d="M83.019083,17.6545915 L83.019083,32.5000103 C75.7553371,31.2558868 66.7677067,28.9189523 56.959976,25.4555817 C33.8465355,17.3015295 16.0553789,7.2308547 17.0595834,2.70829791 C17.0763201,2.64104799 17.0930569,2.57379808 17.1097936,2.52336064 C18.6663106,-1.89832127 39.1353459,1.16154986 62.5667845,9.41647693 C70.0983183,12.0728486 76.8934355,14.8132826 82.6006645,17.4528418 C82.7345584,17.5200917 82.8684524,17.5873416 83.019083,17.6545915 Z" id="Path" fill="#FFCF2D"></path>
                    </g>
                    <g id="DIPLOMA_1_">
                        <path d="M101.804554,0.407905008 C93.705676,0.407905008 87.146254,6.83413452 87.146254,14.7521673 L87.146254,54.0636427 C87.146254,61.9816755 80.5868321,68.407905 72.5046872,68.407905 L13.8045541,68.407905 C21.9034322,68.407905 28.4461209,61.9816755 28.4461209,54.0636427 L28.4461209,14.7521673 C28.4461209,6.81774107 35.0055429,0.407905008 43.0876878,0.407905008 L101.804554,0.407905008 L101.804554,0.407905008 Z" id="Path" stroke="#FFCF2D" fill="#FFFFFF" fill-rule="nonzero"></path>
                        <g id="Group" transform="translate(38.562997, 20.973684)" stroke="#FFCF2D">
                            <rect id="Rectangle" fill="#FFFFFF" fill-rule="nonzero" x="0.241557498" y="0.434220797" width="36" height="34"></rect>
                            <line x1="36.2415575" y1="5.6842208" x2="0.241557498" y2="5.6842208" id="Path"></line>
                            <line x1="36.2415575" y1="9.6842208" x2="0.241557498" y2="9.6842208" id="Path"></line>
                            <line x1="36.2415575" y1="14.6842208" x2="0.241557498" y2="14.6842208" id="Path"></line>
                            <line x1="36.2415575" y1="19.6842208" x2="0.241557498" y2="19.6842208" id="Path"></line>
                            <line x1="36.2415575" y1="24.6842208" x2="0.241557498" y2="24.6842208" id="Path"></line>
                            <line x1="36.2415575" y1="29.6842208" x2="0.241557498" y2="29.6842208" id="Path"></line>
                        </g>
                        <path d="M86.8045541,14.407905 C86.8045541,6.71190501 93.0698367,0.471905008 100.804554,0.407905008 C108.555419,0.471905008 114.804554,6.71190501 114.804554,14.407905 L86.8045541,14.407905 Z" id="Path" stroke="#FFCF2D" fill="#66B0F0" fill-rule="nonzero"></path>
                        <path d="M72.8045541,68.407905 C72.7878138,68.407905 72.7543332,68.407905 72.7375929,68.407905 L14.230269,68.407905 C14.1967885,68.407905 14.1633079,68.407905 14.1298273,68.407905 C8.12006211,68.3339679 2.98079218,65.0511582 0.804554092,60.407905 L59.42906,60.407905 C61.6220384,65.0511582 66.7613083,68.3339679 72.8045541,68.407905 Z" id="Path" fill="#FFCF2D" fill-rule="nonzero"></path>
                        <g id="Group" transform="translate(34.674234, 7.256579)" fill="#FE5244" fill-rule="nonzero">
                            <path d="M6.13032027,10.1513261 L0.130320267,10.1513261 L0.130320267,4.15132606 L2.95210245,4.15132606 L2.95210245,7.48465939 C2.95210245,7.55873347 2.98180542,7.61428902 3.01150839,7.63280754 C3.01150839,7.63280754 3.02635987,7.65132606 3.02635987,7.65132606 L6.13032027,10.1513261 Z" id="Path"></path>
                            <path d="M9.13032027,6.17019398 L9.13032027,6.98151474 C9.13032027,7.13245814 9.11312829,7.28340153 9.11312829,7.43434493 C9.11312829,7.47208078 9.09593631,7.52868455 9.09593631,7.5664204 C9.07874434,7.6418921 9.07874434,7.7173638 9.06155236,7.79283549 C8.87244061,8.83057134 8.30510537,9.67962795 7.60023431,10.0003827 C7.54865838,10.0192506 7.49708244,10.0381185 7.44550651,10.0569864 C7.35954663,10.0947223 7.25639477,10.1135902 7.17043488,10.1324581 C7.13605093,10.1324581 7.10166697,10.1513261 7.06728302,10.1513261 L3.13032027,7.34000531 C3.16470422,6.67962795 3.54292772,6.15132606 3.98991912,6.15132606 L9.13032027,6.15132606 L9.13032027,6.17019398 Z" id="Path"></path>
                            <path d="M45.1303203,4.15132606 L45.1303203,10.1513261 L39.1303203,10.1513261 L42.2194292,7.65132606 C42.2194292,7.65132606 42.2342807,7.63280754 42.2342807,7.63280754 C42.2342807,7.63280754 42.2342807,7.63280754 42.2342807,7.63280754 C42.2491321,7.61428902 42.2491321,7.61428902 42.2639836,7.61428902 C42.2639836,7.5957705 42.2788351,7.5957705 42.2788351,7.57725199 C42.2788351,7.57725199 42.2788351,7.55873347 42.2936866,7.55873347 C42.2936866,7.54021495 42.2936866,7.54021495 42.3085381,7.54021495 C42.3085381,7.54021495 42.3085381,7.54021495 42.3085381,7.54021495 C42.3085381,7.54021495 42.3085381,7.54021495 42.3085381,7.52169643 C42.3085381,7.50317791 42.3085381,7.50317791 42.3085381,7.48465939 L42.3085381,4.15132606 L45.1303203,4.15132606 L45.1303203,4.15132606 Z" id="Path"></path>
                            <path d="M42.1303203,7.32702921 L38.1933575,10.1513261 C38.0902057,10.132371 37.9870538,10.113416 37.8839019,10.094461 C37.849518,10.075506 37.815134,10.075506 37.7807501,10.056551 C37.7291741,10.037596 37.6947902,10.018641 37.6432143,9.99968596 C37.6088303,9.98073095 37.5572544,9.96177594 37.5228704,9.94282092 C36.9899191,9.62058571 36.5429277,8.9950703 36.319432,8.21791479 C36.2850481,8.10418472 36.2506641,7.99045464 36.2334721,7.87672457 C36.2162802,7.83881454 36.2162802,7.7819495 36.1990882,7.72508447 C36.1647042,7.47866931 36.1303203,7.23225414 36.1303203,6.96688397 L36.1303203,6.15181843 L41.2879134,6.15181843 C41.7177128,6.13286342 42.0959363,6.66360377 42.1303203,7.32702921 Z" id="Path"></path>
                            <path d="M43.1303203,1.31704035 L43.1303203,6.15132606 C43.0965792,6.11704035 43.0628382,6.06561177 43.0290972,6.03132606 C42.9616151,5.96275463 42.894133,5.91132606 42.8266509,5.85989749 C42.6579457,5.75704035 42.47237,5.68846892 42.2867943,5.68846892 L3.97384621,5.68846892 C3.77139998,5.68846892 3.58582427,5.75704035 3.43398961,5.85989749 C3.36650753,5.91132606 3.29902545,5.96275463 3.23154338,6.03132606 C3.19780234,6.06561177 3.1640613,6.09989749 3.13032027,6.15132606 L3.13032027,1.31704035 C3.13032027,0.665611775 3.50147168,0.15132606 3.97384621,0.15132606 L42.2867943,0.15132606 C42.7422983,0.15132606 43.1303203,0.682754632 43.1303203,1.31704035 Z" id="Path"></path>
                        </g>
                    </g>
                    <g id="HAND_9_" transform="translate(60.079455, 37.355263)">
                        <path d="M52.7250989,39.0111613 L52.7250989,104.052642 L52.7085014,104.052642 C45.5051819,102.824818 36.5923188,100.5185 26.8661778,97.100504 C20.857879,94.9932928 15.231323,92.7533438 10.1856798,90.5299871 L12.891074,75.431072 L17.4885844,49.7961007 C3.06534789,45.2830184 0.725098928,31.4119271 0.725098928,31.4119271 L12.3267587,31.4119271 C20.3599537,31.4119271 26.8495803,24.9077791 26.8495803,16.8937395 L26.8495803,12.1151817 L19.3972981,12.1151817 C14.1690823,12.1151817 9.92011967,6.97159526 9.92011967,1.74504772 L9.92011967,0.0526418499 L26.484435,0.0526418499 C29.5549744,0.0526418499 32.4429413,1.4961645 34.2852649,3.95181224 L46.4014475,20.1292213 C50.51763,25.5714676 52.7250989,32.1917612 52.7250989,39.0111613 Z" id="Path" fill="#A0505A" fill-rule="nonzero"></path>
                        <path d="M51.7250989,89.7198882 L51.7250989,104.052642 L51.7087119,104.052642 C44.5967337,102.851482 35.7968898,100.595251 26.1940806,97.2514824 C20.2619698,95.1900332 14.706761,92.9987288 9.72509893,90.8236563 L12.3961875,76.0526418 C18.2955242,77.4810476 24.8503428,79.4126418 31.6673541,81.7824969 C39.041525,84.3471346 45.6946658,86.9929317 51.2662616,89.5413375 C51.4465191,89.5900332 51.5776155,89.6549607 51.7250989,89.7198882 Z" id="Path" fill="#73325A" fill-rule="nonzero"></path>
                        <path d="M27.7250989,12.0526418 L19.4857827,12.0526418 C14.1011673,12.0526418 9.72509893,6.93572301 9.72509893,1.73627321 L9.72509893,0.0526418499 L27.7250989,0.0526418499 L27.7250989,12.0526418 Z" id="Path" fill="#A0505A" fill-rule="nonzero"></path>
                        <path d="M22.7250989,28.0526418 C22.7250989,28.0526418 33.7277375,32.5604139 34.7250989,48.0526418" id="Path" stroke="#73325A"></path>
                        <line x1="16.7250989" y1="50.3026418" x2="24.7250989" y2="50.3026418" id="Path" stroke="#73325A"></line>
                    </g>
                </g>
                <g id="CAP_6_">
                    <path d="M77.0009219,56.2339258 L82.1834832,52.7850536 C88.9355268,48.3015197 97.9763987,52.735784 98.6140009,60.832422 L99.7420663,75.1698764 C100.36332,83.0365897 108.979123,87.5201235 115.731167,83.4964393 L119.000922,81.5420784" id="Path" stroke="#FFCF2D"></path>
                    <polygon id="Path" fill="#9A3B82" fill-rule="nonzero" points="0.000921856365 3.00001027 67.839916 41.6706947 102.000922 117.00001 62.8098703 91.0723305 20.2210394 42.0632905"></polygon>
                    <polyline id="Path" stroke="#FFCF2D" points="1.00092186 1.02709305e-05 70.1624185 40.0407578 105.000922 118.00001"></polyline>
                    <path d="M62.2610735,93.5432595 C65.3738939,90.8775211 58.3788392,77.2804109 46.6371817,63.173264 C34.8955242,49.066117 22.8535906,39.7910227 19.7407702,42.4567611 C16.6279498,45.1224995 23.6230045,58.7196096 35.364662,72.8267566 C47.1063195,86.9339036 59.1482531,96.2089978 62.2610735,93.5432595 Z" id="Oval" fill="#FFFFFF" fill-rule="nonzero"></path>
                    <path d="M60.2619307,93.5613485 C63.3729694,90.9996545 56.3760866,77.9265055 44.6339556,64.361653 C32.8918247,50.7968004 20.8509516,41.876978 17.739913,44.438672 C14.6288743,47.000366 21.6257571,60.073515 33.3678881,73.6383675 C45.110019,87.2032201 57.1508921,96.1230425 60.2619307,93.5613485 Z" id="Oval" stroke="#FFCF2D" fill="#FFFFFF" fill-rule="nonzero"></path>
                    <path d="M68.2120859,87.6704166 L61.8218812,93.0000103 C63.0076924,92.0058047 62.7441788,89.4958432 61.3113236,85.9916761 C58.9561709,80.2220242 53.4388549,71.7957247 46.0934134,63.1575453 C38.7315024,54.5356644 31.2543041,47.7392101 25.9016842,44.4795198 C22.657173,42.4911087 20.186733,41.8065737 19.0009219,42.8007793 L25.3911266,37.4711856 C28.5203505,34.8471349 41.2019423,43.4201204 53.0271149,57.2901028 C64.8522876,71.1600851 71.3577795,85.0626643 68.2120859,87.6704166 Z" id="Path" fill="#FFCF2D" fill-rule="nonzero"></path>
                    <path d="M137.68965,67.3760083 C139.538458,66.4700522 141.336845,65.6666572 143.068002,65.0000103 C144.09325,66.093995 144.98404,67.3760083 145.673141,68.8118633 C146.362243,70.2477182 146.799234,71.7519472 147.000922,73.2390827 C145.404224,74.1963193 143.673066,75.153556 141.841065,76.0595121 C132.647444,80.5892925 124.277384,82.3157372 123.134484,79.9226456 C121.974777,77.5124605 128.496029,71.9057888 137.68965,67.3760083 Z" id="Path" fill="#FFCF2D" fill-rule="nonzero"></path>
                    <circle id="Oval" stroke="#9A3B82" cx="121.000922" cy="81.0000103" r="2"></circle>
                </g>
            </g>
            <g id="_x34__HAND__x26__CAP" transform="translate(291.000000, 135.824253)">
                <g id="DRESS_5_" transform="translate(50.432787, 175.319614)" fill-rule="nonzero">
                    <path d="M80.568135,11.696925 L80.568135,81.6803961 L0.568134971,81.6803961 L10.8190162,5.68039612 C10.8190162,8.75477629 26.4275586,12.589487 45.685282,14.2423796 C64.9430054,15.9118011 80.568135,14.7713052 80.568135,11.696925 Z" id="Path" fill="#66B0F0"></path>
                    <path d="M79.568135,9.53529606 C79.568135,12.4529411 64.3391383,13.5352932 45.568135,11.9509806 C26.7971316,10.366668 11.568135,6.72745491 11.568135,3.82549619 C11.568135,3.82549619 11.568135,3.82549619 11.568135,3.82549619 C11.568135,0.907851194 26.7971316,-0.17450098 45.568135,1.40981162 C64.3554609,2.97843796 79.568135,6.61765107 79.568135,9.53529606 Z" id="Path" fill="#3FB1B5"></path>
                </g>
                <g id="CAP_5_">
                    <path d="M140.759517,30.0000103 L145.469252,33.0831444 C150.178987,36.7698551 143.662778,53.245863 130.920688,69.8523739 C118.178598,86.4751978 104.033265,96.9480661 99.3235307,93.2613555 L97.0009219,91.0428039" id="Path" stroke="#66B0F0"></path>
                    <polygon id="Path" fill="#66B0F0" fill-rule="nonzero" points="74.0009219 108.00001 128.831051 58.0728428 148.000922 1.02709305e-05 89.4823702 52.9056936"></polygon>
                    <polyline id="Path" stroke="#FE5244" stroke-linecap="round" points="72.0009219 114.00001 130.814715 59.3422493 150.000922 1.02709305e-05"></polyline>
                    <path d="M103.000922,58.0000103 L51.8245984,107.013748 C49.337312,109.390369 45.2731186,107.143974 45.9721599,103.758103 L47.402756,96.8073006 C48.0530269,93.665603 44.4927935,91.3703732 41.9079665,93.2586474 L25.0009219,105.581264" id="Path" stroke="#FE5244"></path>
                    <path d="M10.5063519,124.361071 C8.93307497,125.69364 7.359798,126.923704 5.8372719,128.00001 C4.56850015,127.197052 3.40123014,126.189083 2.36929579,124.959019 C1.35427839,123.728955 0.559181426,122.396385 0.000921856365,120.995479 C1.32044448,119.66291 2.77530275,118.313256 4.34857972,116.963603 C12.2149646,110.283672 19.9629307,106.508058 21.6715433,108.558165 C23.363239,110.608272 18.3727368,117.68114 10.5063519,124.361071 Z" id="Path" fill="#FFCF2D" fill-rule="nonzero"></path>
                    <circle id="Oval" stroke="#FE5244" cx="23.0009219" cy="107.00001" r="2"></circle>
                </g>
                <g id="HAND_7_" transform="translate(56.813115, 99.182637)">
                    <path d="M48.1878071,34.6930083 L48.1878071,88.8173736 C45.1969011,88.6849593 42.0119903,88.4863377 38.7300772,88.1884055 C26.6209496,87.1125389 16.0153585,85.09322 10.0820476,82.9745905 L10.9712359,76.9828411 L13.9459748,56.8724118 L10.0982146,56.8724118 C4.61758144,56.8724118 0.187807102,52.3372204 0.187807102,46.7261623 L0.187807102,26.7978028 C0.187807102,22.8584759 1.57817423,19.0681151 4.11640259,16.1053441 L16.7752103,1.29148873 C17.5997303,0.331484693 19.151768,0.927349265 19.151768,2.20183738 L19.151768,22.3453703 C19.151768,24.7619321 18.3110809,27.095735 16.7752103,28.9329841 L15.6435161,30.2902312 L29.3855168,30.2902312 C31.3740651,30.2902312 32.5380934,28.0226355 31.4225663,26.3343525 C29.725025,23.8019281 27.4939708,20.1936371 25.376086,16.0225851 C21.1564834,7.76324005 28.4801614,3.14528962 28.4801614,3.14528962 L45.2454023,25.4074521 C47.1531153,28.1053945 48.1878071,31.3660978 48.1878071,34.6930083 Z" id="Path" fill="#FFCF2D" fill-rule="nonzero"></path>
                    <path d="M19.1878071,0.817373615 L19.1878071,22.6448424 C19.1878071,25.130654 18.2292818,27.531335 16.4781297,29.4212329 L15.1878071,30.8173736" id="Path" stroke="#FFFFFF" stroke-linecap="round"></path>
                    <g id="Group" transform="translate(5.885246, 3.308039)" stroke="#FFFFFF" stroke-linecap="round">
                        <line x1="10.3025612" y1="27.509335" x2="0.302561201" y2="37.509335" id="Path"></line>
                        <path d="M13.3025612,10.509335 C13.3025612,12.8769026 12.5005046,15.1633891 11.035209,16.9633891 L9.9555175,18.2931188 L1.3025612,28.509335" id="Path"></path>
                        <path d="M13.3025612,0.50933503 C13.3025612,2.8769026 12.5005046,5.16338908 11.035209,6.96338908 L9.9555175,8.29311881 L1.3025612,18.509335" id="Path"></path>
                        <line x1="7.3025612" y1="54.759335" x2="15.3025612" y2="54.759335" id="Path"></line>
                    </g>
                    <path d="M48.1878071,78.5752705 L48.1878071,88.8173736 C45.2052021,88.6905364 42.0291308,88.5002806 38.7563264,88.214897 C26.6808067,87.1843448 16.1046505,85.2500776 10.1878071,83.2206826 L11.0745275,77.4812997 C17.1364707,76.6092941 27.2773277,76.5617301 38.7724486,77.5447183 C42.0291308,77.8459567 45.1890799,78.1789043 48.1878071,78.5752705 Z" id="Path" fill="#FE5244" fill-rule="nonzero"></path>
                </g>
            </g>
            <g id="_x33__HAND__x26__CAP" transform="translate(223.000000, 0.824253)">
                <g id="HAND_4_" transform="translate(0.000000, 135.510549)">
                    <g id="DRESS_4_" transform="translate(0.000000, 156.437131)" fill-rule="nonzero">
                        <path d="M92.0009219,100.052331 L0.000921856365,100.052331 L0.000921856365,8.06896747 C0.000921856365,11.9951881 15.1280511,15.1727649 33.8018901,15.1727649 C52.4757291,15.1727649 67.6028584,11.9951881 67.6028584,8.06896747 L67.6028584,8.05233095 L92.0009219,100.052331 Z" id="Path" fill="#3FB1B5"></path>
                        <path d="M68.0009219,7.0359375 L68.0009219,7.0359375 C68.0009219,10.9211834 52.7873057,14.0523309 34.0009219,14.0523309 C15.214538,14.0523309 0.000921856365,10.9211834 0.000921856365,7.05233095 L0.000921856365,7.0359375 C0.0512425273,3.18347849 15.2480852,0.052330946 34.0009219,0.052330946 C52.7537586,0.052330946 67.9673747,3.18347849 68.0009219,7.0359375 Z" id="Path" fill="#66B0F0"></path>
                    </g>
                    <g id="HAND_6_" transform="translate(1.943820, 83.794937)" fill-rule="nonzero">
                        <path d="M66.0571016,79.7010459 C65.9399617,83.5606547 50.7954383,86.694525 32.1367162,86.694525 C28.5388461,86.694525 25.0915844,86.5790667 21.8451341,86.3646439 L21.8451341,52.4363739 L4.14026593,52.4363739 C1.88113814,52.4363739 0.0571016316,50.638522 0.0571016316,48.4118246 L0.0571016316,45.6903056 C0.0571016316,44.4697456 0.609332869,43.381138 1.47951542,42.6389056 C0.609332869,41.8966731 0.0571016316,40.8080655 0.0571016316,39.5875055 L0.0571016316,36.8659865 C0.0571016316,35.7938729 0.49219291,34.8042297 1.19503267,34.0949853 C0.49219291,33.3692469 0.0571016316,32.3960977 0.0571016316,31.3239842 L0.0571016316,28.6024652 C0.0571016316,27.4973636 0.508927189,26.4912262 1.24523551,25.7489938 C0.508927189,25.0232554 0.0571016316,24.0171181 0.0571016316,22.9120164 L0.0571016316,17.9802941 C0.0571016316,15.7535968 1.88113814,13.9557448 4.14026593,13.9557448 L26.7482781,13.9557448 C27.5013207,13.5268994 28.7229231,12.0094464 26.6478724,11.1187675 L21.7949312,9.99717176 C17.9460469,8.1003555 15.502842,4.94999109 15.502842,0.694525039 L32.5718075,0.694525039 C35.4333694,0.694525039 37.9937142,2.47588292 38.9643024,5.13142569 L65.6387446,78.5299681 L66.0571016,79.7010459 Z" id="HAND_5_" fill="#E57281"></path>
                        <path d="M65.0571016,79.768382 C65.0072339,79.719144 64.9739887,79.6863187 64.9739887,79.6863187 C64.9739887,83.5597068 49.8972981,86.694525 31.2799955,86.694525 C27.7061383,86.694525 24.2818844,86.5796364 21.0571016,86.3662718 L21.0571016,73.0227783 C24.2818844,72.8094137 27.7227609,72.694525 31.2799955,72.694525 C48.068813,72.694525 61.9985448,75.2549002 64.5584239,78.5866704 L64.5584239,78.5866704 C64.6249142,78.6687337 64.8077628,79.1118756 65.0571016,79.768382 Z" id="Path" fill="#9A3B82"></path>
                    </g>
                    <g id="WINEGLASS" transform="translate(2.089023, 0.000000)">
                        <path d="M26.9118985,51.4894617 L26.9118985,64.5944959 C26.9118985,71.7206613 21.096109,77.4894617 13.9118985,77.4894617 C6.72768799,77.4894617 0.91189852,71.7206613 0.91189852,64.5944959 L0.91189852,51.4894617 C0.91189852,54.6889645 6.72768799,57.2744213 13.9118985,57.2744213 C21.096109,57.2744213 26.9118985,54.6889645 26.9118985,51.4894617 Z" id="Path" fill="#FFFFFF" fill-rule="nonzero"></path>
                        <ellipse id="Oval" fill="#FFCF2D" fill-rule="nonzero" cx="13.9118985" cy="51.4894617" rx="13" ry="6"></ellipse>
                        <path d="M26.9118985,28.4894617 L26.9118985,65.1628084 C26.9118985,70.1060282 24.2890915,74.4146454 20.3956078,76.7192547 C20.3956078,76.7192547 20.3956078,76.7192547 20.3793171,76.7192547 C18.473302,77.8381591 16.2577632,78.4894617 13.9118985,78.4894617 C11.5660339,78.4894617 9.36678574,77.8548592 7.4607707,76.7359547 C7.44447997,76.7359547 7.44447997,76.7192547 7.42818925,76.7192547 C3.53470554,74.4146454 0.91189852,70.1060282 0.91189852,65.1628084 L0.91189852,28.4894617 L26.9118985,28.4894617 Z" id="Path" stroke="#FFCF2D"></path>
                        <ellipse id="Oval" stroke="#FFCF2D" fill="#FFFFFF" fill-rule="nonzero" cx="13.9118985" cy="28.4894617" rx="13" ry="6"></ellipse>
                        <circle id="Oval" fill="#FFCF2D" fill-rule="nonzero" cx="13.9118985" cy="27.4894617" r="2"></circle>
                        <circle id="Oval" stroke="#FFCF2D" fill="#FFFFFF" fill-rule="nonzero" cx="8.91189852" cy="67.4894617" r="2"></circle>
                        <circle id="Oval" fill="#FFFFFF" fill-rule="nonzero" cx="19.9118985" cy="51.4894617" r="1"></circle>
                        <circle id="Oval" fill="#FFCF2D" fill-rule="nonzero" cx="5.91189852" cy="62.4894617" r="1"></circle>
                        <path d="M26.4823271,144.489462 L1.34146999,144.489462 C0.882575594,144.489462 0.751462911,143.886249 1.14480096,143.67431 L9.92935076,140.364791 C11.3060339,139.843094 12.2238227,138.522547 12.2238227,137.055273 L12.2238227,84.950742 C12.2238227,81.4944965 10.4210233,78.2501906 7.42182069,76.5057648 C9.33934368,77.5980688 11.5518702,78.2175845 13.9118985,78.2175845 C16.2883159,78.2175845 18.5008424,77.5817658 20.4183654,76.4894617 C17.4027737,78.2175845 15.5999743,81.4781935 15.5999743,84.934439 L15.5999743,137.03897 C15.5999743,138.506244 16.5177631,139.826791 17.8944463,140.348488 L26.6789961,143.658006 C27.0723341,143.886249 26.9412214,144.489462 26.4823271,144.489462 Z" id="Path" stroke="#FFCF2D" fill="#FFFFFF" fill-rule="nonzero"></path>
                        <circle id="Oval" fill="#FFCF2D" fill-rule="nonzero" cx="3.91189852" cy="6.48946175" r="2"></circle>
                        <circle id="Oval" stroke="#FFCF2D" fill="#FFFFFF" fill-rule="nonzero" cx="19.9118985" cy="10.4894617" r="2"></circle>
                        <circle id="Oval" stroke="#FFCF2D" fill="#FFFFFF" fill-rule="nonzero" cx="9.91189852" cy="18.4894617" r="1"></circle>
                        <circle id="Oval" fill="#FFCF2D" fill-rule="nonzero" cx="8.91189852" cy="1.48946175" r="1"></circle>
                    </g>
                    <g id="FINGERS_1_" transform="translate(1.943820, 96.600844)">
                        <path d="M30.0571016,5.88861787 L30.0571016,39.8886179 L4.01814059,39.8886179 C1.82658215,39.8886179 0.0571016316,38.0475846 0.0571016316,35.7674057 L0.0571016316,32.9805205 C0.0571016316,31.7306447 0.592815917,30.6158906 1.43697176,29.855831 C0.592815917,29.0957714 0.0571016316,27.9810173 0.0571016316,26.7311415 L0.0571016316,23.9442562 C0.0571016316,22.8463923 0.479179554,21.8329795 1.16099774,21.1067003 C0.479179554,20.3635309 0.0571016316,19.3670083 0.0571016316,18.2691444 L0.0571016316,15.4822592 C0.0571016316,14.3506149 0.49541332,13.3203119 1.20969903,12.5602522 C0.49541332,11.8170828 0.0571016316,10.7867798 0.0571016316,9.6551355 L0.0571016316,5.90550808 L30.0571016,5.90550808 L30.0571016,5.88861787 Z" id="Path" fill="#E57281" fill-rule="nonzero"></path>
                        <g id="Group" transform="translate(0.217805, 0.000000)" stroke="#9A3B82" stroke-linecap="round">
                            <path d="M0.839296964,26.8886179 C0.839296964,29.0980041 2.84793627,30.8886179 5.326338,30.8886179 L26.3522559,30.8886179 C28.8306577,30.8886179 30.839297,29.0980041 30.839297,26.8886179" id="Path"></path>
                            <path d="M0.839296964,17.8886179 C0.839296964,20.0980041 2.84793627,21.8886179 5.326338,21.8886179 L26.3522559,21.8886179 C28.8306577,21.8886179 30.839297,20.0980041 30.839297,17.8886179" id="Path"></path>
                            <path d="M0.839296964,9.88861787 C0.839296964,12.0980041 2.84793627,13.8886179 5.326338,13.8886179 L26.3522559,13.8886179 C28.8306577,13.8886179 30.839297,12.0980041 30.839297,9.88861787" id="Path"></path>
                            <path d="M4.83929696,38.8886179 L26.3040325,38.8886179 C28.8090703,38.8886179 30.839297,36.8104056 30.839297,34.2461598 L30.839297,2.88861787" id="Path"></path>
                            <path d="M10.391764,3.45889899 L8.17355687,3.45889899 C7.43971392,3.45889899 6.83929696,4.03721224 6.83929696,4.74403955 L6.83929696,4.74403955 C6.83929696,5.45086686 7.43971392,6.02918011 8.17355687,6.02918011 L20.582174,6.02918011 C21.9164339,6.02918011 23.0171983,4.98500341 23.0171983,3.68379859 L23.0171983,3.68379859 C23.0171983,2.14162991 24.3181017,0.888617866 25.9192136,0.888617866 L27.9372817,0.888617866 C29.5383936,0.888617866 30.839297,2.14162991 30.839297,3.68379859 L30.839297,8.88861787" id="Path"></path>
                        </g>
                    </g>
                </g>
                <g id="CAP_4_" transform="translate(38.279170, 0.000000)">
                    <polygon id="Path" fill="#3FB1B5" fill-rule="nonzero" points="124.721752 64.8846739 69.9119288 121.00001 6.72175159 51.4557841 75.6909158 3.00001027"></polygon>
                    <polyline id="Path" stroke="#FFCF2D" points="68.2031827 124.00001 0.721751588 51.1190515 74.7217516 1.02709305e-05"></polyline>
                    <path d="M67.7217516,61.7471188 L71.9451342,61.1355376 C78.8943655,60.1272551 85.3388099,64.8546124 86.3652097,71.6646516 L90.0501531,96.3262496 C91.2952938,104.640448 100.381456,109.400864 108.104693,105.764435 L125.721752,97.4832951" id="Path" stroke="#FFCF2D"></path>
                    <path d="M147.620276,102.389768 C149.439802,103.336528 151.157299,104.315935 152.721752,105.295342 C152.449673,106.715482 151.939525,108.119299 151.191309,109.474145 C150.443092,110.812668 149.490817,112.00428 148.402502,113.00001 C146.685005,112.281778 144.882484,111.449283 143.062957,110.502523 C133.965326,105.785046 127.622491,100.153456 128.880855,97.917143 C130.139219,95.6808304 138.522644,97.6722913 147.620276,102.389768 Z" id="Path" fill="#FFCF2D" fill-rule="nonzero"></path>
                    <circle id="Oval" stroke="#66B0F0" cx="127.721752" cy="97.0000103" r="2"></circle>
                </g>
            </g>
            <g id="_x32__HAND__x26__CAP" transform="translate(114.000000, 70.824253)">
                <g id="HAND_2_" transform="translate(0.000000, 179.800514)">
                    <g id="DRESS_3_" transform="translate(7.753846, 74.767095)" fill-rule="nonzero">
                        <path d="M72.2470757,5.43240102 L72.2470757,67.432401 L0.247075703,67.432401 L0.247075703,30.9043711 C1.81048527,34.9759141 20.1389676,32.377409 39.6982192,24.9294646 C57.2948928,18.2263145 70.8832503,9.98392264 72.2470757,5.43240102 Z" id="Path" fill="#FE5244"></path>
                        <path d="M72.1227679,3.62453727 C70.7470951,8.07911369 57.2224086,16.1459466 39.67015,22.7063228 C20.1952644,29.9956297 1.9303078,32.5387879 0.355742581,28.5539668 C-1.21882264,24.5691457 14.5268296,15.5466036 34.0182896,8.25729675 C53.4931752,0.967989879 70.5647771,-1.70475597 72.1227679,2.28006512 C72.2885116,2.68502661 72.2885116,3.13858348 72.1227679,3.62453727 Z" id="Path" fill="#66B0F0"></path>
                    </g>
                    <g id="HAND_3_">
                        <path d="M64.0009219,37.1161851 L64.0009219,89.5601332 L64.0009219,89.5601332 L60.1186884,91.5594141 C56.1877239,93.5091261 51.7856934,95.4423151 47.1075208,97.2598433 C38.5146274,100.614009 30.1491452,102.976795 23.4242721,104.199496 L27.290262,88.750507 L33.5928,63.5364349 C30.6039675,63.5364349 27.7775716,62.1815503 25.877064,59.8352868 L0.000921856365,29.8956415 C4.43543962,25.7814188 11.0628508,31.38271 11.0628508,31.38271 L8.5775716,18.4782603 C7.99280003,15.4215084 8.86995739,12.2490957 10.9329016,9.95240105 L18.7948305,1.17869707 C20.3542213,-0.556216147 23.1643736,0.121226156 23.8141198,2.36835185 L29.4019371,21.9811327 C29.4019371,21.9811327 43.2740183,32.7541176 45.8730031,32.7541176 C48.8131046,32.7541176 49.8364549,30.3252391 44.3460995,22.3446383 C40.2202112,16.3467955 44.3460995,11.968205 44.3460995,11.968205 L57.7796021,23.4682011 C61.7268102,26.8719356 64.0009219,31.8618765 64.0009219,37.1161851 Z" id="Path" stroke="#FFCF2D" fill="#FFFFFF" fill-rule="nonzero"></path>
                        <g id="Group" transform="translate(8.331361, 6.174807)" stroke="#FFCF2D">
                            <path d="M25.6695609,28.0246889 L15.8081102,20.2901485 L10.4128372,2.04046852 C9.79344029,-0.0529711293 7.16915341,-0.676208888 5.66956091,0.937817103" id="Path"></path>
                            <path d="M18.6695609,31.0246889 L10.2159895,24.1908376 L5.18563234,6.93057302 C4.60706091,4.95067217 2.0677752,4.35989531 0.66956091,5.89272177" id="Path"></path>
                            <line x1="11.6695609" y1="34.0246889" x2="1.66956091" y2="26.0246889" id="Path"></line>
                            <line x1="24.6695609" y1="58.2746889" x2="36.6695609" y2="58.2746889" id="Path"></line>
                        </g>
                        <path d="M65.0009219,76.1994961 L65.0009219,89.8101566 C59.9945219,92.3733084 54.0305219,94.9689052 47.5289219,97.3860546 C38.6249219,100.679218 29.9729219,102.999033 23.0009219,104.199496 L27.0329219,89.0152551 C31.5017219,86.9387777 36.5081219,84.8623003 41.8001219,82.9156027 C50.3513219,79.7684417 58.4489219,77.4648496 65.0009219,76.1994961 Z" id="Path" fill="#FFCF2D" fill-rule="nonzero"></path>
                    </g>
                </g>
                <g id="CAP_3_" transform="translate(11.558580, 0.000000)">
                    <path d="M42.0287404,81.0000103 L47.3872416,92.1330491 C47.8984144,96.2557786 44.7961242,99.977919 40.442342,100.478655 L40.442342,100.478655 C36.0885597,100.962701 32.9862696,104.701532 33.4974424,108.824262 L34.2730149,115.00001" id="Path" stroke="#FFCF2D"></path>
                    <polygon id="Path" fill="#FE5244" fill-rule="nonzero" points="99.1620959 46.3470764 125.442342 4.73242808 35.0527316 4.00001027 5.44234197 84.0000103 54.328193 81.66959"></polygon>
                    <polyline id="Path" stroke="#FFCF2D" points="126.442342 1.0824845 31.852037 1.02709305e-05 0.442341975 84.0000103"></polyline>
                    <path d="M97.935771,39.6055103 C103.191727,48.7319091 94.2566021,63.9259503 77.9631398,73.5344358 C61.6696776,83.1429213 44.2100502,83.5252659 38.9540947,74.398867 C38.2314008,73.1520912 37.7879295,71.8055733 37.5744063,70.3593134 C36.2604174,61.2329145 44.8506198,48.7651565 58.9267258,40.4699415 C73.0028318,32.1747265 87.9494554,30.7450902 95.1435446,36.3971405 C96.27686,37.2948191 97.2130771,38.3587345 97.935771,39.6055103 Z" id="Path" stroke="#FFFFFF" fill="#66B0F0" fill-rule="nonzero"></path>
                    <path d="M93.3130213,32.5088384 L97.442342,39.661923 C96.7270266,38.4314612 95.800368,37.3814671 94.6786234,36.4955346 C87.5579839,30.9174411 72.7639611,32.3283706 58.8315681,40.5150431 C44.8991752,48.7017157 36.4129336,61.0063337 37.6972498,70.013314 C37.8923359,71.4406497 38.3475366,72.7695485 39.0628519,74.0000103 L34.9335313,66.8469257 C29.7312376,57.8399453 38.5751369,42.8447175 54.7022475,33.3619585 C70.8131009,23.8956058 88.1107276,23.501858 93.3130213,32.5088384 Z" id="Path" stroke="#FFFFFF" stroke-linecap="round"></path>
                    <path d="M33.4408017,137.651499 C32.7631715,139.538244 32.0334158,141.342956 31.2689099,143.00001 C29.722523,142.983604 28.158761,142.737507 26.6297492,142.245312 C25.0833623,141.753118 23.6933516,141.064046 22.442342,140.194503 C22.8940955,138.43901 23.4500997,136.585078 24.12773,134.698333 C27.4985059,125.248202 32.2940428,118.259042 34.8655626,119.06296 C37.4370824,119.883284 36.7942025,128.201368 33.4408017,137.651499 Z" id="Path" fill="#FFCF2D" fill-rule="nonzero"></path>
                    <circle id="Oval" stroke="#66B0F0" cx="34.442342" cy="117.00001" r="2"></circle>
                </g>
            </g>
            <g id="_x31__HAND__x26__CAP" transform="translate(0.000000, 5.824253)">
                <g id="HAND" transform="translate(0.000000, 147.115942)">
                    <g id="DRESS_2_" transform="translate(0.000000, 135.231884)" fill-rule="nonzero">
                        <path d="M74.0009219,36.7072971 L74.0009219,104.652184 L0.000921856365,104.652184 L0.000921856365,4.65218418 C1.44932043,9.54926254 16.9373098,19.7584259 36.161509,28.2909624 C56.6201389,37.4045082 73.5729859,41.1561682 74.0009219,36.7072971 Z" id="Path" fill="#66B0F0"></path>
                        <path d="M73.9920319,34.8180608 C73.5483563,39.1854549 56.6393891,35.4862069 36.2138825,26.5558638 C17.020808,18.1632968 1.5578943,8.14110513 0.111840738,3.35000863 C0.0132461765,3.04037995 -0.0196186772,2.74704751 0.0132461765,2.48630756 C0.440489275,-1.88108653 17.3658889,1.81816145 37.7913955,10.7485046 C58.2169021,19.6788477 74.4357074,30.4506667 73.9920319,34.8180608 Z" id="Path" fill="#9A3B82"></path>
                    </g>
                    <g id="HAND_1_" transform="translate(17.077178, 67.231884)" fill-rule="nonzero">
                        <path d="M12.7529311,6.61017273 C14.5011673,2.96917973 18.1446875,0.652184184 22.1476582,0.652184184 L33.6990878,0.652184184 L34.3036181,47.6871937 L42.3585754,90.9157106 L44.9237443,104.652184 C38.1268635,103.129587 28.8465071,99.9354433 18.6838632,95.400752 C12.9326563,92.8355069 5.72730915,89.0290142 0.923744348,86.3479194 L0.923744348,29.1181294 C0.923744348,28.3402809 1.07079225,27.5624324 1.33221074,26.8342338 L12.7529311,6.61017273 Z" id="Path" fill="#A0505A"></path>
                        <path d="M44.9237443,103.652184 L44.9237443,103.652184 C38.1268635,102.161551 28.8465071,99.0344627 18.6838632,94.594969 C12.9326563,92.0835766 5.72730915,88.3569943 0.923744348,85.7321842 L0.923744348,71.6521842 C6.16845285,73.3210449 13.9293143,76.1078804 20.2523741,78.8623108 C28.7811524,82.588893 36.2315795,86.428893 42.374914,90.2040829 L44.9237443,103.652184 Z" id="Path" fill="#73325A"></path>
                    </g>
                    <g id="DIPLOMA" transform="translate(22.332966, 0.000000)" fill-rule="nonzero">
                        <g id="Group" stroke="#FFCF2D">
                            <path d="M84.667956,14.7948322 L21.7051797,129.890086 C19.3781853,134.147945 12.966395,135.162513 7.39165301,132.152074 C1.81691105,129.141634 -0.811420752,123.253813 1.51557364,118.979322 L64.47835,3.88406824 L84.667956,14.7948322 Z" id="Path" fill="#FFFFFF"></path>
                            <path d="M83.8132526,15.0749068 C86.1570485,11.0148865 83.5148665,5.39957221 77.9117739,2.53275124 C72.3086813,-0.334069731 65.8664553,0.633209422 63.5226594,4.69322969 C61.1788636,8.75324997 63.8210456,14.3685643 69.4241382,17.2353852 C75.0272308,20.1022062 81.4694568,19.1349271 83.8132526,15.0749068 Z" id="Oval" fill="#66B0F0"></path>
                        </g>
                        <path d="M43.667956,58.4225157 L73.0745754,34.8840682 L72.6112184,43.254736 L82.0272941,45.5582918 L60.5804856,58.5360713 C66.3393508,57.5627378 73.273157,56.7678488 78.9823768,57.2058489 C85.7837953,57.7249601 83.5001073,65.52785 80.951644,72.1951842 C86.9090908,71.6274063 106.883086,59.7689603 114.412637,62.0076273 C119.01311,63.3702941 117.358263,72.5682953 116.034386,77.6458515 C117.954008,77.7431849 127.667956,77.6296293 127.667956,77.6296293 L122.537932,82.2205188 L125.351171,86.8114083 C114.429185,87.2818528 114.296798,85.5947414 115.67032,78.0027405 C115.901999,69.7456283 106.568665,77.678296 86.6939608,82.3340744 C76.8476251,84.6376302 78.1218567,78.3596294 80.5544809,71.822073 C79.5781215,68.8209615 72.2802492,65.5602944 48.8310766,71.5625174 L43.667956,58.4225157 Z" id="Path" fill="#FE5244"></path>
                        <circle id="Oval" stroke="#FE5244" fill="#FFFFFF" cx="43.667956" cy="64.8840682" r="9"></circle>
                    </g>
                    <g id="FINGERS" transform="translate(35.790518, 67.231884)">
                        <path d="M27.2104037,0.652184184 L27.2104037,1.16620288 C27.2104037,6.39984774 22.8514293,10.6521842 17.4507883,10.6521842 L7.21040366,10.6521842 L7.21040366,0.652184184 L27.2104037,0.652184184 Z" id="Path" fill="#A0505A" fill-rule="nonzero"></path>
                        <g id="Group" transform="translate(0.000000, 14.884058)">
                            <path d="M39.949273,5.47256725 L37.188927,11.9411737 L33.9712456,19.5042161 L32.2235709,23.6042671 L29.5612254,29.8605203 C29.4958918,30.0238689 29.3978913,30.2035525 29.3162243,30.3505662 C29.3162243,30.3669011 29.2998909,30.3669011 29.2998909,30.383236 C28.4505537,31.8533738 26.8008794,32.7681262 24.9878711,32.7681262 L3.83610765,32.7681262 C1.27176258,32.7681262 -0.47591209,30.3342314 0.47142558,28.0963549 L2.00676594,24.4863498 L5.38778142,16.5476055 L8.29512806,9.70329722 L10.8594731,3.692067 C11.6108099,1.92790161 13.4238182,0.768126213 15.4491608,0.768126213 L36.6009243,0.768126213 C39.148936,0.800795942 40.8966106,3.23469079 39.949273,5.47256725 Z" id="Path" fill="#A0505A" fill-rule="nonzero"></path>
                            <g transform="translate(1.382580, 8.260870)" id="Path" stroke="#73325A" stroke-linecap="round">
                                <path d="M6.82782373,2.16959431 C7.73582223,1.13063327 9.04737561,0.507256648 10.4598177,0.507256648 L31.2597092,0.507256648 C33.4456315,0.507256648 35.0262214,2.44665059 34.8076292,4.50725665"></path>
                                <path d="M4.82782373,8.7896994 C5.72532035,7.98053909 6.96149493,7.50725665 8.29927291,7.50725665 L29.2465053,7.50725665 C31.6511188,7.50725665 33.3106409,9.52252382 32.7010205,11.5072566"></path>
                                <path d="M0.827823731,16.6521842 C1.72795681,15.9275465 2.93379546,15.5072566 4.22455232,15.5072566 L25.2333186,15.5072566 C27.7129305,15.5072566 29.4282785,17.5652277 28.6300472,19.5072566 C28.6300472,19.5072566 28.6300472,19.5072566 28.6300472,19.5072566"></path>
                            </g>
                        </g>
                    </g>
                </g>
                <g id="CAP_2_" transform="translate(12.603087, 0.000000)">
                    <path d="M99.813165,42.8840521 C101.183723,41.47885 102.554281,40.1683806 103.908326,39.0000103 C105.229345,39.5841954 106.484314,40.3894236 107.623694,41.399906 C108.74656,42.4103884 109.687787,43.5471812 110.397835,44.7629178 C109.274968,46.1365424 108.019999,47.5417445 106.649442,48.9469466 C99.813165,55.9729572 92.7622228,60.3148738 90.8632571,58.6412623 C88.9808041,56.9676508 92.9768885,49.9100627 99.813165,42.8840521 Z" id="Path" fill="#FFCF2D" fill-rule="nonzero"></path>
                    <path d="M52.3978348,101.423519 L50.1683938,102.78859 C42.0782254,107.732809 26.3201312,97.0952462 14.9871396,79.0330307 C3.63725831,60.9708152 1.00246443,42.3425947 9.07574311,37.3983753 L11.3727429,36.0000103 L25.0365137,75.620354 L52.3978348,101.423519 Z" id="Path" fill="#66B0F0" fill-rule="nonzero"></path>
                    <polygon id="Path" stroke="#FFFFFF" fill="#66B0F0" fill-rule="nonzero" points="74.3978348 123.00001 52.3279483 101.674942 25.6299736 75.8953781 12.3056914 36.3534163 0.397834756 1.00001027 55.8525421 46.0934708"></polygon>
                    <polyline id="Path" stroke="#9A3B82" points="76.3978348 120.00001 57.628672 44.1128252 0.397834756 1.02709305e-05"></polyline>
                    <path d="M44.7142574,68.3238777 C43.2580723,62.5381225 46.9662648,56.703611 52.9941942,55.3059285 L52.9941942,55.3059285 C58.7173406,53.9732546 64.525149,57.109914 66.3199819,62.4731141 L71.0779824,77.2137881 C73.7025022,85.372353 85.9446172,84.7385203 87.6547882,76.3524257 L90.3978348,62.8144086" id="Path" stroke="#FFCF2D"></path>
                    <circle id="Oval" stroke="#66B0F0" cx="90.3978348" cy="61.0000103" r="2"></circle>
                </g>
            </g>
        </g>
    </g>
</svg>